<svg viewBox="0 0 32 32" xmlns="http://www.w3.org/2000/svg" xmlns:xlink="http://www.w3.org/1999/xlink" width="32.000000" height="32.000000" fill="none">
	<rect id="camera_8775444 1" width="32.000000" height="32.000000" x="0.000000" y="0.000000" fill="rgb(255,255,255)" fill-opacity="0" />
	<g id="Group">
		<path id="Vector" d="M6.03419 7L2.96581 7C2.43237 7 2 7.43237 2 7.96581L2 10L7 10L7 7.96581C7 7.43237 6.56763 7 6.03419 7Z" fill="rgb(180,210,226)" fill-rule="nonzero" />
		<path id="Vector" d="M16 15L0 16L0 26.7465C0 27.9883 1.00619 29 2.2535 29L29.7464 29C30.9932 29 32 27.9889 32 26.7465L32 16L16 15Z" fill="rgb(1,114,151)" fill-rule="nonzero" />
		<path id="Vector" d="M16 28.2877C20.6944 28.2877 24.5 24.4821 24.5 19.7877C24.5 15.0933 20.6944 11.2877 16 11.2877C11.3056 11.2877 7.5 15.0933 7.5 19.7877C7.5 24.4821 11.3056 28.2877 16 28.2877Z" fill="rgb(2,95,128)" fill-rule="evenodd" />
		<path id="Vector" d="M29.4245 15.8391L29.4245 21.2737C29.4245 24.8297 26.5419 27.7124 22.9859 27.7124L0.217041 27.7124C0.578291 28.4727 1.35304 29 2.25348 29L29.7464 29C30.9932 29 32 27.989 32 26.7465L32 16L29.4245 15.8391Z" fill="rgb(2,95,128)" fill-rule="nonzero" />
		<path id="Vector" d="M32 11.2535C32 10.0089 30.9911 9 29.7465 9L26.1931 9C26.0747 9 25.9666 8.93312 25.9136 8.82725L23.6229 4.24569C23.2411 3.48225 22.4608 3 21.6073 3L10.3927 3C9.53919 3 8.75887 3.48225 8.37712 4.24575L6.08638 8.82731C6.03344 8.93312 5.92525 9 5.80688 9L2.2535 9C1.00894 9 0 10.0089 0 11.2535L0 16L32 16L32 11.2535Z" fill="rgb(1,192,250)" fill-rule="nonzero" />
		<path id="Vector" d="M29.7466 9L29.2078 9C29.3468 9.29275 29.4247 9.62019 29.4247 9.96581L29.4247 16L32.0001 16L32.0001 11.2535C32.0001 10.0089 30.9911 9 29.7466 9Z" fill="rgb(8,169,241)" fill-rule="nonzero" />
		<path id="Vector" d="M16 27C20.6944 27 24.5 23.1944 24.5 18.5C24.5 13.8056 20.6944 10 16 10C11.3056 10 7.5 13.8056 7.5 18.5C7.5 23.1944 11.3056 27 16 27Z" fill="rgb(180,210,226)" fill-rule="evenodd" />
		<path id="Vector" d="M16 25C19.5899 25 22.5 22.0899 22.5 18.5C22.5 14.9101 19.5899 12 16 12C12.4101 12 9.5 14.9101 9.5 18.5C9.5 22.0899 12.4101 25 16 25Z" fill="rgb(1,114,151)" fill-rule="evenodd" />
		<path id="Vector" d="M17.5446 12.1846C18.9975 13.3766 19.9245 15.1861 19.9245 17.2122C19.9245 20.8021 17.0144 23.7122 13.4245 23.7122C12.8923 23.7122 12.3749 23.6482 11.8799 23.5276C13.0013 24.4477 14.4361 24.9999 15.9999 24.9999C19.5898 24.9999 22.4999 22.0898 22.4999 18.4999C22.4999 15.4423 20.3888 12.8778 17.5446 12.1846Z" fill="rgb(2,95,128)" fill-rule="nonzero" />
		<path id="Vector" d="M16 20C16.8284 20 17.5 19.3284 17.5 18.5C17.5 17.6716 16.8284 17 16 17C15.1716 17 14.5 17.6716 14.5 18.5C14.5 19.3284 15.1716 20 16 20Z" fill="rgb(2,76,103)" fill-rule="evenodd" />
		<path id="Vector" d="M18.8284 18.1716C20.2091 18.1716 21.3284 17.0523 21.3284 15.6716C21.3284 14.2909 20.2091 13.1716 18.8284 13.1716C17.4477 13.1716 16.3284 14.2909 16.3284 15.6716C16.3284 17.0523 17.4477 18.1716 18.8284 18.1716Z" fill="rgb(255,255,255)" fill-rule="evenodd" />
		<path id="Vector" d="M21.3285 15.6716C21.3285 14.9823 21.0494 14.358 20.5981 13.9058C20.5965 13.9042 20.595 13.9026 20.5934 13.9011C20.1412 13.4503 19.5174 13.1716 18.8285 13.1716C18.7275 13.1716 18.6281 13.1776 18.5303 13.1893C19.4035 14.2959 19.9246 15.6933 19.9246 17.2123C19.9246 17.4578 19.911 17.6999 19.8845 17.9383C20.7374 17.5403 21.3285 16.675 21.3285 15.6716Z" fill="rgb(242,251,255)" fill-rule="nonzero" />
		<path id="Vector" d="M29.6875 14L26.3125 14C26.1399 14 26 13.8601 26 13.6875L26 11.3125C26 11.1399 26.1399 11 26.3125 11L29.6875 11C29.8601 11 30 11.1399 30 11.3125L30 13.6875C30 13.8601 29.8601 14 29.6875 14Z" fill="rgb(255,255,255)" fill-rule="nonzero" />
		<path id="Vector" d="M30 13.6875L30 11.3125C30 11.1399 29.8601 11 29.6875 11L29.4246 11L29.4246 14L29.6875 14C29.8601 14 30 13.8601 30 13.6875Z" fill="rgb(242,251,255)" fill-rule="nonzero" />
		<path id="Vector" d="M4 25C4.82843 25 5.5 24.3284 5.5 23.5C5.5 22.6716 4.82843 22 4 22C3.17157 22 2.5 22.6716 2.5 23.5C2.5 24.3284 3.17157 25 4 25Z" fill="rgb(253,71,85)" fill-rule="evenodd" />
		<path id="Vector" d="M16 23.4688C13.2603 23.4688 11.0312 21.2398 11.0312 18.5C11.0312 16.3637 12.3908 14.4708 14.4143 13.7898C14.6596 13.7074 14.9255 13.8392 15.0081 14.0845C15.0906 14.3299 14.9586 14.5957 14.7133 14.6783C13.0717 15.2308 11.9688 16.7666 11.9688 18.5C11.9688 20.7229 13.7772 22.5313 16 22.5313C17.7334 22.5313 19.2692 21.4284 19.8217 19.7867C19.9043 19.5413 20.1701 19.4092 20.4154 19.4919C20.6608 19.5745 20.7928 19.8404 20.7102 20.0857C20.0293 22.1092 18.1364 23.4688 16 23.4688Z" fill="rgb(2,95,128)" fill-rule="nonzero" />
		<path id="Vector" d="M20.4155 19.4919C20.1702 19.4093 19.9043 19.5413 19.8218 19.7867C19.4466 20.9014 18.618 21.7678 17.582 22.2091C16.9304 22.7518 16.1711 23.1694 15.3408 23.4252C15.5566 23.454 15.7766 23.4688 16.0001 23.4688C18.1364 23.4688 20.0293 22.1092 20.7103 20.0857C20.7929 19.8403 20.6609 19.5745 20.4155 19.4919Z" fill="rgb(2,76,103)" fill-rule="nonzero" />
		<path id="Vector" d="M21 8.46875L11 8.46875C10.7411 8.46875 10.5312 8.25887 10.5312 8C10.5312 7.74113 10.7411 7.53125 11 7.53125L21 7.53125C21.2589 7.53125 21.4688 7.74113 21.4688 8C21.4688 8.25887 21.2589 8.46875 21 8.46875Z" fill="rgb(8,169,241)" fill-rule="nonzero" />
	</g>
</svg>
