<svg viewBox="0 0 32 32" xmlns="http://www.w3.org/2000/svg" xmlns:xlink="http://www.w3.org/1999/xlink" width="32.000000" height="32.000000" fill="none">
	<rect id="design-tool_2062942 1" width="32.000000" height="32.000000" x="0.000000" y="0.000000" fill="rgb(255,255,255)" fill-opacity="0" />
	<path id="Vector" d="M31.7254 7.86056C32.0916 7.49438 32.0915 6.90082 31.7254 6.53475L29.0738 3.88313L26.4221 1.2315C26.0561 0.86544 25.4625 0.865315 25.0963 1.2315L1.23146 25.0963C0.865394 25.4624 0.865394 26.0561 1.23146 26.4221L3.88308 29.0738L6.53471 31.7254C6.90077 32.0914 7.49446 32.0914 7.86052 31.7254L9.84927 29.7366L9.18633 27.7479L11.1751 28.4108L12.5009 27.085L11.838 25.0963L13.8267 25.7592L25.7591 13.8268L25.0962 11.838L27.085 12.5009L28.4108 11.1751L27.7478 9.18638L29.7366 9.84931L31.7254 7.86056Z" fill="rgb(255,218,45)" fill-rule="nonzero" />
	<path id="Vector" d="M7.86056 31.7254L9.84931 29.7366L9.18637 27.7479L11.1751 28.4108L12.5009 27.085L11.838 25.0962L13.8267 25.7592L25.7592 13.8267L25.0962 11.838L27.085 12.5009L28.4108 11.1751L27.7479 9.18637L29.7366 9.84931L31.7254 7.86056C32.0916 7.49437 32.0914 6.90081 31.7254 6.53474L29.0737 3.88306L3.88306 29.0737L6.53468 31.7254C6.90081 32.0914 7.49443 32.0914 7.86056 31.7254Z" fill="rgb(253,191,0)" fill-rule="nonzero" />
	<g id="Group">
		<path id="Vector" d="M26.422 7.8606C26.0556 8.22703 26.0556 8.82003 26.422 9.18641L28.4108 11.1752L29.7366 9.84935L27.7479 7.8606C27.3814 7.49422 26.7884 7.49422 26.422 7.8606Z" fill="rgb(56,73,73)" fill-rule="nonzero" />
		<path id="Vector" d="M23.7704 10.5123C23.404 10.8787 23.404 11.4717 23.7704 11.8381L25.7592 13.8268L27.085 12.501L25.0962 10.5123C24.7299 10.1458 24.1369 10.1458 23.7704 10.5123Z" fill="rgb(56,73,73)" fill-rule="nonzero" />
		<path id="Vector" d="M10.5121 23.7704C10.1457 24.1369 10.1457 24.7299 10.5121 25.0962L12.5009 27.085L13.8267 25.7592L11.8379 23.7704C11.4716 23.404 10.8786 23.404 10.5121 23.7704Z" fill="rgb(56,73,73)" fill-rule="nonzero" />
		<path id="Vector" d="M7.86052 26.422C7.49408 26.7885 7.49408 27.3815 7.86052 27.7479L9.84927 29.7366L11.1751 28.4108L9.18633 26.422C8.8199 26.0556 8.2269 26.0556 7.86052 26.422Z" fill="rgb(56,73,73)" fill-rule="nonzero" />
	</g>
	<path id="Vector" d="M25.872 19.2438L10.2148 3.58569L7.56319 3.58569L5.57444 5.57444L3.58569 7.56319L3.58569 10.2148L19.2429 25.8729L21.8946 25.8729L23.8833 23.8842L25.872 21.8954L25.872 19.2438Z" fill="rgb(255,124,185)" fill-rule="nonzero" />
	<path id="Vector" d="M25.872 19.2438L10.2148 3.58569L7.56321 3.58569L5.57446 5.57444L23.8833 23.8842L25.872 21.8954L25.872 19.2438Z" fill="rgb(255,57,128)" fill-rule="nonzero" />
	<path id="Vector" d="M6.23743 4.91162L5.5745 5.5745L4.91162 6.23743L23.2204 24.5471L23.8834 23.8842L24.5462 23.2213L6.23743 4.91162Z" fill="rgb(255,57,128)" fill-rule="nonzero" />
	<path id="Vector" d="M0 0L0.937358 0L0.937358 25.8893L0 25.8893L0 0Z" fill="rgb(227,10,108)" fill-rule="nonzero" transform="matrix(0.707107,-0.707107,0.707107,0.707107,5.57251,5.57617)" />
	<path id="Vector" d="M31.1785 24.5503L29.8495 23.2212L27.1978 23.2212L25.2091 25.2099L23.2203 27.1987L23.2203 29.8503L24.5462 31.1761C25.6428 32.2728 27.425 32.2748 28.5191 31.1807L29.8495 29.8503L31.1798 28.5199C32.2739 27.4259 32.2732 25.645 31.1785 24.5503Z" fill="rgb(74,105,111)" fill-rule="nonzero" />
	<path id="Vector" d="M31.1785 24.5503L29.8495 23.2212L27.1979 23.2212L25.2091 25.2099L29.8495 29.8503L31.1799 28.5199C32.2739 27.4259 32.2732 25.645 31.1785 24.5503Z" fill="rgb(56,73,73)" fill-rule="nonzero" />
	<path id="Vector" d="M9.55196 2.92281C9.4459 2.81674 9.32659 2.75037 9.19403 2.69743L1.23909 0.0458068C0.894278 -0.0603182 0.52309 0.0192443 0.271153 0.271119C0.0192154 0.522994 -0.0602846 0.894244 0.0457779 1.23906L2.6974 9.19399C2.7504 9.32649 2.81665 9.44581 2.92278 9.55193L3.58572 10.2149L6.90028 6.90031L10.2148 3.58574L9.55196 2.92281Z" fill="rgb(254,210,164)" fill-rule="nonzero" />
	<path id="Vector" d="M9.55193 2.92281C9.44587 2.81674 9.32656 2.75037 9.19399 2.69743L1.23906 0.0458068C0.894243 -0.0603182 0.523056 0.0192443 0.271118 0.271119L6.90024 6.90024L10.2148 3.58568L9.55193 2.92281Z" fill="rgb(255,189,134)" fill-rule="nonzero" />
	<path id="Vector" d="M25.872 19.2438L22.5575 22.5583L19.2429 25.8729L23.2204 29.8503L26.535 26.5358L29.8495 23.2212L25.872 19.2438Z" fill="rgb(227,246,255)" fill-rule="nonzero" />
	<path id="Vector" d="M0 0L4.68679 0L4.68679 5.62415L0 5.62415L0 0Z" fill="rgb(187,236,255)" fill-rule="nonzero" transform="matrix(0.707107,-0.707107,0.707107,0.707107,22.5529,22.5587)" />
</svg>
