<svg viewBox="0 0 180 40" xmlns="http://www.w3.org/2000/svg" xmlns:xlink="http://www.w3.org/1999/xlink" width="180.000000" height="40.000000" fill="none" customFrame="#000000">
	<defs>
		<linearGradient id="paint_linear_4" x1="-57.3825493" x2="179.096649" y1="22.2988586" y2="6.48832703" gradientUnits="userSpaceOnUse">
			<stop stop-color="rgb(79,57,246)" offset="0" stop-opacity="1" />
			<stop stop-color="rgb(149,20,250)" offset="1" stop-opacity="1" />
		</linearGradient>
	</defs>
	<path id="DigiTools" d="M29.1688 4.84848L29.1688 0L34.6788 0L34.6788 4.84848L29.1688 4.84848ZM66.4389 4.84848L66.4389 0L71.9489 0L71.9489 4.84848L66.4389 4.84848ZM150.712 29.697L150.712 0L156.222 0L156.222 29.697L150.712 29.697ZM0 29.697L0 0.60606L9.43987 0.60606Q9.78424 0.60606 10.8579 0.626263Q11.9315 0.646464 12.9241 0.767676Q15.8843 1.12397 18.0873 2.60595L18.0874 2.60602Q18.5075 2.88861 18.9 3.21212Q19.5446 3.74337 20.1079 4.35005L20.1079 4.35012Q21.6867 6.05049 22.6273 8.34343Q23.9035 11.4545 23.9035 15.1515Q23.9035 18.8485 22.6273 21.9596Q21.6867 24.2525 20.1079 25.9529L20.1078 25.953Q19.5445 26.5597 18.9 27.0909C17.2659 28.4377 15.2739 29.2525 12.9241 29.5354C12.2624 29.6162 11.5736 29.6633 10.8579 29.6768C10.1421 29.6902 9.66945 29.697 9.43987 29.697L0 29.697ZM84.7879 29.697L84.7879 5.73737L75.5911 5.73737L75.5911 0.60606L99.4946 0.60606L99.4946 5.73737L90.2979 5.73737L90.2979 29.697L84.7879 29.697ZM5.59099 24.5253L9.43987 24.5253C9.8045 24.5253 10.2974 24.5185 10.9186 24.505Q11.8505 24.4646 12.6 24.3232Q13.8032 24.0807 14.7234 23.4348Q15.2594 23.0586 15.6993 22.5455Q16.9148 21.1515 17.482 19.1919C17.8736 17.8855 18.0694 16.5387 18.0694 15.1515C18.0694 13.697 17.8669 12.3165 17.4617 11.0101Q16.8743 9.0505 15.6588 7.69697C14.8485 6.79461 13.8289 6.22222 12.6 5.9798C12.1003 5.87205 11.5399 5.81145 10.9186 5.79798Q9.98681 5.77778 9.43987 5.77778L5.59099 5.77778L5.59099 24.5253ZM49.6245 30.303C47.6123 30.303 45.8499 29.798 44.3374 28.7879C42.8248 27.7778 41.6432 26.404 40.7924 24.6667C39.9551 22.9293 39.5364 20.9697 39.5364 18.7879C39.5364 16.5657 39.9618 14.5926 40.8126 12.8687Q41.6891 11.1068 43.0378 9.85284Q43.684 9.25194 44.4387 8.76768C45.9917 7.77104 47.8149 7.27273 49.9081 7.27273C51.9878 7.27273 53.7367 7.77778 55.1547 8.78788C55.286 8.88137 55.4143 8.97797 55.5396 9.07769L55.5396 18.7879C55.5396 17.468 55.3776 16.3098 55.0534 15.3131Q54.6156 13.9669 53.7014 13.1613L53.7008 13.1608Q53.6001 13.072 53.4936 12.9899Q52.4403 12.1616 50.7184 12.1616C49.4895 12.1616 48.4766 12.4646 47.6798 13.0707Q47.4371 13.2543 47.2204 13.4646L47.2203 13.4647Q46.3877 14.2727 45.9377 15.4747C45.5596 16.4714 45.3705 17.5758 45.3705 18.7879C45.3705 20.0135 45.5528 21.1313 45.9174 22.1414C46.2821 23.138 46.8425 23.9327 47.5988 24.5253C48.3551 25.1178 49.3274 25.4141 50.5158 25.4141C51.7448 25.4141 52.7239 25.138 53.4531 24.5859C54.1959 24.0337 54.7293 23.2593 55.0534 22.2626C55.3776 21.266 55.5396 20.1077 55.5396 18.7879L55.5396 24.7677L54.8509 24.7677L54.8509 28.9365C53.4315 29.8475 51.6894 30.303 49.6245 30.303ZM109.351 30.303C107.149 30.303 105.218 29.8114 103.557 28.8283C101.896 27.8451 100.6 26.4916 99.6678 24.7677C98.7494 23.0303 98.2903 21.037 98.2903 18.7879C98.2903 16.5118 98.7629 14.5118 99.7083 12.7879Q100.554 11.2334 101.782 10.0886Q102.613 9.3142 103.618 8.72727C105.279 7.75757 107.19 7.27273 109.351 7.27273C111.552 7.27273 113.483 7.76431 115.144 8.74747Q116.27 9.40858 117.172 10.297L117.173 10.2971Q118.283 11.3906 119.054 12.8283C119.986 14.5522 120.452 16.5387 120.452 18.7879C120.452 21.0505 119.979 23.0505 119.034 24.7879Q118.291 26.1622 117.233 27.2226L117.233 27.2227Q116.301 28.1575 115.124 28.8485C113.463 29.8182 111.538 30.303 109.351 30.303ZM134.751 30.303C132.55 30.303 130.619 29.8114 128.958 28.8283Q127.844 28.169 126.948 27.2875Q125.841 26.1974 125.068 24.7677C124.15 23.0303 123.691 21.037 123.691 18.7879C123.691 16.5118 124.164 14.5118 125.109 12.7879C126.054 11.0505 127.357 9.69697 129.019 8.72727C130.68 7.75757 132.591 7.27273 134.751 7.27273C136.953 7.27273 138.884 7.76431 140.545 8.74747C142.22 9.73064 143.523 11.0909 144.455 12.8283C145.386 14.5522 145.852 16.5387 145.852 18.7879Q145.852 22.1818 144.434 24.7879C143.502 26.5118 142.199 27.8653 140.525 28.8485C138.864 29.8182 136.939 30.303 134.751 30.303ZM170.844 30.303C168.089 30.303 165.86 29.6835 164.159 28.4444C162.471 27.1919 161.444 25.4276 161.08 23.1515L166.711 22.303C166.941 23.3266 167.447 24.1279 168.231 24.7071C169.027 25.2862 170.033 25.5758 171.249 25.5758C172.248 25.5758 173.018 25.3872 173.558 25.0101C174.098 24.6195 174.368 24.0808 174.368 23.3939C174.368 22.963 174.26 22.6195 174.044 22.3636C173.828 22.0943 173.342 21.8316 172.586 21.5758C171.843 21.3199 170.682 20.9832 169.102 20.5657C167.319 20.1077 165.894 19.596 164.827 19.0303C163.76 18.4646 162.991 17.7912 162.518 17.0101C162.045 16.2155 161.809 15.2593 161.809 14.1414Q161.809 12.4459 162.508 11.1188Q162.675 10.8014 162.883 10.505C163.598 9.46801 164.605 8.6734 165.901 8.12121C167.211 7.55556 168.75 7.27273 170.52 7.27273C172.235 7.27273 173.754 7.53535 175.077 8.0606C176.401 8.58586 177.468 9.33333 178.278 10.303C179.102 11.2727 179.608 12.4175 179.797 13.7374L174.166 14.7475C174.071 13.9394 173.72 13.2997 173.113 12.8283C172.505 12.3569 171.681 12.0808 170.641 12C169.628 11.9327 168.811 12.0673 168.19 12.404C167.582 12.7407 167.278 13.2256 167.278 13.8586C167.278 14.2357 167.407 14.5522 167.663 14.8081C167.933 15.064 168.48 15.3266 169.304 15.596C170.141 15.8653 171.411 16.2155 173.113 16.6465C174.774 17.0774 176.104 17.5825 177.103 18.1616C178.116 18.7273 178.852 19.4141 179.311 20.2222C179.77 21.0168 180 21.9798 180 23.1111C180 25.3468 179.19 27.1044 177.569 28.3838C175.949 29.6633 173.707 30.303 170.844 30.303ZM29.1688 29.697L29.1688 7.87879L34.6788 7.87879L34.6788 29.697L29.1688 29.697ZM58.3756 12.9091C57.7139 11.3325 56.7685 10.0554 55.5396 9.07769L55.5396 7.87879L60.3608 7.87879L60.3608 31.1919C60.3608 31.7306 60.3338 32.2357 60.2798 32.7071C60.2393 33.1919 60.1583 33.67 60.0367 34.1414C59.6856 35.4747 59.0306 36.5724 58.0718 37.4343C57.1264 38.2963 55.965 38.936 54.5875 39.3535Q52.5213 40 50.1107 40C48.8682 40 47.6866 39.798 46.5657 39.3939C45.4448 39.0034 44.4387 38.4512 43.5473 37.7374C42.6695 37.037 41.9538 36.2155 41.4001 35.2727L46.5049 32.8081C46.856 33.4545 47.3557 33.9461 48.0039 34.2828Q48.3363 34.452 48.6869 34.5644Q49.3832 34.7879 50.1512 34.7879C50.975 34.7879 51.7515 34.6465 52.4808 34.3636Q53.3941 34.0263 53.9967 33.3932Q54.1159 33.2681 54.2229 33.1313C54.6431 32.6234 54.8532 31.9957 54.8532 31.2483C54.8532 31.203 54.8524 31.1573 54.8509 31.1111L54.8509 28.9365C54.926 28.8882 55.0003 28.8387 55.0737 28.7879Q55.7523 28.3179 56.3257 27.743Q57.6008 26.4644 58.3554 24.6667C59.0981 22.9293 59.4695 20.9697 59.4695 18.7879C59.4695 16.6061 59.1049 14.6465 58.3756 12.9091ZM66.4389 29.697L66.4389 7.87879L71.9489 7.87879L71.9489 29.697L66.4389 29.697ZM109.351 25.1717C111.12 25.1717 112.437 24.5791 113.301 23.3939C114.179 22.1953 114.618 20.6599 114.618 18.7879C114.618 16.8485 114.172 15.2997 113.281 14.1414C112.403 12.9832 111.093 12.404 109.351 12.404C108.149 12.404 107.163 12.6734 106.393 13.2121C105.623 13.7508 105.049 14.4983 104.671 15.4545C104.307 16.4108 104.124 17.5219 104.124 18.7879C104.124 20.7407 104.563 22.2963 105.441 23.4545C106.332 24.5993 107.636 25.1717 109.351 25.1717ZM134.751 25.1717C136.521 25.1717 137.837 24.5791 138.702 23.3939Q140.018 21.596 140.018 18.7879C140.018 16.8485 139.573 15.2997 138.681 14.1414Q138.314 13.6566 137.845 13.3071Q136.635 12.404 134.751 12.404C133.549 12.404 132.564 12.6734 131.794 13.2121C131.024 13.7508 130.45 14.4983 130.072 15.4545Q129.525 16.8889 129.525 18.7879C129.525 20.7407 129.964 22.2963 130.842 23.4545C131.733 24.5993 133.036 25.1717 134.751 25.1717Z" fill="url(#paint_linear_4)" fill-rule="evenodd" />
</svg>
