<svg viewBox="0 0 60 60" xmlns="http://www.w3.org/2000/svg" xmlns:xlink="http://www.w3.org/1999/xlink" width="60.000000" height="60.000000" fill="none">
	<defs>
		<linearGradient id="paint_linear_1" x1="-10.9395962" x2="55.0303345" y1="33.1190262" y2="32.2161827" gradientUnits="userSpaceOnUse">
			<stop stop-color="rgb(79,57,246)" offset="0" stop-opacity="1" />
			<stop stop-color="rgb(149,20,250)" offset="1" stop-opacity="1" />
		</linearGradient>
		<linearGradient id="paint_linear_2" x1="7.48343849" x2="43.75354" y1="18.505827" y2="17.6590157" gradientUnits="userSpaceOnUse">
			<stop stop-color="rgb(79,57,246)" offset="0" stop-opacity="1" />
			<stop stop-color="rgb(149,20,250)" offset="1" stop-opacity="1" />
		</linearGradient>
	</defs>
	<rect id="package" width="60.000000" height="60.000000" x="0.000000" y="0.000000" fill="rgb(255,255,255)" fill-opacity="0" />
	<path id="Icon (Stroke)" d="M50 21.7467L32.5 31.4708L32.5 50.7482L49.2285 41.4586C49.6284 41.2365 49.8323 41.1202 49.9756 41.0289C49.9795 41.0264 49.9817 41.0215 49.9854 41.0192C49.9856 41.0154 49.9875 41.011 49.9878 41.007C49.998 40.8376 50 40.6038 50 40.1476L50 21.7467ZM29.9878 7.87709C29.8436 7.94664 29.651 8.05497 29.2725 8.26527L12.6465 17.4987L30 27.1373L47.3511 17.4987L30.7275 8.26527C30.349 8.05497 30.1564 7.94664 30.0122 7.87709C30.0078 7.87494 30.0041 7.87169 30 7.86976C29.9959 7.87169 29.9922 7.87494 29.9878 7.87709ZM10.0122 41.007C10.0124 41.011 10.012 41.0155 10.0122 41.0192C10.0164 41.0219 10.0198 41.026 10.0244 41.0289C10.1677 41.1202 10.3716 41.2365 10.7715 41.4586L27.5 50.7482L27.5 31.4708L10 21.7467L10 40.1476C10 40.6038 10.002 40.8376 10.0122 41.007ZM55 40.6969C54.9952 41.2825 54.9605 41.9572 54.7485 42.5988C54.5252 43.2744 54.159 43.8943 53.6768 44.4176C53.0669 45.0793 52.256 45.4964 51.6577 45.8288L33.1567 56.1071C32.5895 56.4222 31.8474 56.8644 31.0083 57.0372C30.3438 57.1739 29.6562 57.1739 28.9917 57.0372C28.1526 56.8644 27.4105 56.4222 26.8433 56.1071L8.34229 45.8288C7.74398 45.4964 6.93307 45.0793 6.32324 44.4176C5.84103 43.8943 5.4748 43.2744 5.25146 42.5988C5.0395 41.9572 5.00476 41.2825 5 40.6969L5 19.3029C5.00477 18.7177 5.03989 18.0445 5.25146 17.4035C5.47478 16.7276 5.84086 16.1056 6.32324 15.5822C6.93311 14.9205 7.74404 14.5034 8.34229 14.171L26.8433 3.89271C27.4104 3.5776 28.1526 3.13534 28.9917 2.96254C29.49 2.86005 30.0012 2.8332 30.5054 2.88441L31.0083 2.96254L31.3184 3.03822C32.0303 3.24308 32.6604 3.61696 33.1567 3.89271L51.6577 14.171C52.256 14.5034 53.0669 14.9205 53.6768 15.5822C54.0387 15.975 54.3337 16.4234 54.5532 16.9079L54.7485 17.4035L54.8389 17.7257C54.9699 18.2663 54.996 18.815 55 19.3029L55 40.6969Z" fill="url(#paint_linear_1)" fill-rule="nonzero" />
	<path id="Icon (Stroke)" d="M16.5649 10.0367C17.2354 8.8299 18.7565 8.39483 19.9634 9.06504L42.4634 21.565C43.6702 22.2355 44.1052 23.7566 43.435 24.9635C42.7646 26.1703 41.2435 26.6054 40.0366 25.9352L17.5366 13.4352C16.3298 12.7647 15.8947 11.2436 16.5649 10.0367Z" fill="url(#paint_linear_2)" fill-rule="nonzero" />
</svg>
