<svg viewBox="0 0 32 32" xmlns="http://www.w3.org/2000/svg" xmlns:xlink="http://www.w3.org/1999/xlink" width="32.000000" height="32.000000" fill="none">
	<rect id="portfolio_1153845 1" width="32.000000" height="32.000000" x="0.000000" y="0.000000" fill="rgb(255,255,255)" fill-opacity="0" />
	<path id="Vector" d="M28.6678 7.72419L28.6678 29.1916C28.6678 30.7426 27.4103 32.0001 25.8593 32.0001L6.23196 32.0001C4.68098 32.0001 3.42346 30.7426 3.42346 29.1916L3.42346 2.8085C3.42346 1.25751 4.68098 0 6.23196 0L21.1696 0L21.2399 0.0724065L21.1696 0.140425L21.1696 6.31994C21.1696 7.09502 21.7977 7.72391 22.5731 7.72419L22.5739 7.72419L28.5274 7.72419L28.5995 7.65397L28.6678 7.72419Z" fill="rgb(254,219,65)" fill-rule="nonzero" />
	<path id="Vector" d="M28.5996 7.65395L28.5274 7.72417L22.5739 7.72417C21.7988 7.72417 21.17 7.09582 21.1697 6.32074C21.1697 6.32047 21.1697 6.32019 21.1697 6.31992L21.1697 0.140406L21.2399 0.0723877L28.5996 7.65395Z" fill="rgb(0,239,209)" fill-rule="nonzero" />
	<path id="Vector" d="M17.9779 17.6275L17.9779 18.5158L8.25051 18.5158L8.25051 17.6275C8.24392 15.3398 10.0933 13.4797 12.3812 13.4732L12.4057 13.4732L13.8225 13.4732C16.111 13.4666 17.9714 15.3162 17.9779 17.6044L17.9779 17.6275Z" fill="rgb(0,172,234)" fill-rule="nonzero" />
	<path id="Vector" d="M15.102 6.99958C16.1985 8.09199 16.2018 9.86677 15.1092 10.9633C14.0167 12.0598 12.242 12.0631 11.1454 10.9704C10.0489 9.87801 10.0456 8.10323 11.1383 7.00671C11.6641 6.47902 12.3783 6.18226 13.1235 6.18226C13.8654 6.18007 14.5776 6.47436 15.102 6.99958Z" fill="rgb(0,172,234)" fill-rule="nonzero" />
	<g id="Group">
		<path id="Vector" d="M23.9109 27.5085L7.74778 27.5085C7.35996 27.5085 7.04565 27.1942 7.04565 26.8064C7.04565 26.4186 7.35996 26.1042 7.74778 26.1042L23.9109 26.1042C24.2984 26.1042 24.613 26.4186 24.613 26.8064C24.613 27.1942 24.2984 27.5085 23.9109 27.5085Z" fill="rgb(0,239,209)" fill-rule="nonzero" />
		<path id="Vector" d="M17.4245 23.7233L7.74778 23.7233C7.35996 23.7233 7.04565 23.409 7.04565 23.0212C7.04565 22.6334 7.35996 22.3191 7.74778 22.3191L17.4245 22.3191C17.8123 22.3191 18.1266 22.6334 18.1266 23.0212C18.1266 23.409 17.8123 23.7233 17.4245 23.7233Z" fill="rgb(0,239,209)" fill-rule="nonzero" />
	</g>
</svg>
