<svg viewBox="0 0 60 60" xmlns="http://www.w3.org/2000/svg" xmlns:xlink="http://www.w3.org/1999/xlink" width="60.000000" height="60.000000" fill="none">
	<defs>
		<linearGradient id="paint_linear_0" x1="-6.84602642" x2="52.5280151" y1="32.8735733" y2="32.0796394" gradientUnits="userSpaceOnUse">
			<stop stop-color="rgb(79,57,246)" offset="0" stop-opacity="1" />
			<stop stop-color="rgb(149,20,250)" offset="1" stop-opacity="1" />
		</linearGradient>
	</defs>
	<rect id="user-01" width="60.000000" height="60.000000" x="0.000000" y="0.000000" fill="rgb(255,255,255)" fill-opacity="0" />
	<path id="Icon (Stroke)" d="M47.5 52.5C47.5 48.8292 47.4735 47.5474 47.1777 46.5723C46.4505 44.1755 44.5744 42.2994 42.1777 41.5723C41.2025 41.2765 39.9208 41.25 36.25 41.25L23.75 41.25C20.0792 41.25 18.7974 41.2765 17.8223 41.5723C15.4255 42.2994 13.5494 44.1755 12.8222 46.5723C12.5264 47.5474 12.5 48.8292 12.5 52.5C12.5 53.8807 11.3807 55 9.99998 55C8.61927 55 7.49998 53.8807 7.49998 52.5C7.49998 49.1935 7.47199 46.9857 8.03709 45.1221C9.24897 41.1271 12.377 37.999 16.3721 36.7871C18.2357 36.222 20.4435 36.25 23.75 36.25L36.25 36.25C39.5565 36.25 41.7643 36.222 43.6279 36.7871C47.6229 37.999 50.751 41.1271 51.9629 45.1221C52.528 46.9857 52.5 49.1935 52.5 52.5C52.5 53.8807 51.3807 55 50 55C48.6193 55 47.5 53.8807 47.5 52.5ZM38.75 18.75C38.75 13.9175 34.8325 10 30 10C25.1675 10 21.25 13.9175 21.25 18.75C21.25 23.5825 25.1675 27.5 30 27.5C34.8325 27.5 38.75 23.5825 38.75 18.75ZM43.75 18.75C43.75 26.3439 37.5939 32.5 30 32.5C22.4061 32.5 16.25 26.3439 16.25 18.75C16.25 11.1561 22.4061 5 30 5C37.5939 5 43.75 11.1561 43.75 18.75Z" fill="url(#paint_linear_0)" fill-rule="nonzero" />
</svg>
