<svg viewBox="0 0 60 60" xmlns="http://www.w3.org/2000/svg" xmlns:xlink="http://www.w3.org/1999/xlink" width="60.000000" height="60.000000" fill="none">
	<defs>
		<linearGradient id="paint_linear_3" x1="-13.3850441" x2="57.5301781" y1="32.4632797" y2="31.4096832" gradientUnits="userSpaceOnUse">
			<stop stop-color="rgb(79,57,246)" offset="0" stop-opacity="1" />
			<stop stop-color="rgb(149,20,250)" offset="1" stop-opacity="1" />
		</linearGradient>
	</defs>
	<rect id="rocket-02" width="60.000000" height="60.000000" x="0.000000" y="0.000000" fill="rgb(255,255,255)" fill-opacity="0" />
	<path id="Icon (Stroke)" d="M15.0073 37.4701C16.7212 37.5232 18.3658 38.1294 19.6996 39.1865L20.2514 39.6674L20.2807 39.6967C23.2508 42.6292 23.2117 47.3328 20.6616 50.3559L20.664 50.3583C19.5572 51.6759 18.0316 52.6424 16.5649 53.3588C15.0695 54.0892 13.4563 54.6458 12.0068 55.0605C10.5497 55.4772 9.20521 55.7659 8.22747 55.9516C7.73682 56.0448 7.33209 56.1141 7.04827 56.1591C6.90732 56.1814 6.79521 56.1965 6.71624 56.2079C6.67662 56.2137 6.64356 56.2194 6.62102 56.2226C6.61022 56.2241 6.60079 56.2241 6.59417 56.225C6.59123 56.2254 6.58891 56.2272 6.58684 56.2275L6.58196 56.2275C5.80985 56.3307 5.03318 56.0678 4.48235 55.517C3.93199 54.9665 3.66908 54.1915 3.7719 53.4199L6.24993 53.7494L3.7719 53.4174L3.7719 53.4125C3.77219 53.4104 3.77395 53.4081 3.77434 53.4052C3.77526 53.3985 3.77525 53.3894 3.77679 53.3783C3.7799 53.356 3.78574 53.3247 3.79143 53.2856C3.80295 53.2064 3.82021 53.093 3.8427 52.9511C3.88767 52.6674 3.95469 52.2647 4.04778 51.7743C4.23345 50.7965 4.52197 49.4502 4.9389 47.9926C5.35352 46.5432 5.91022 44.9297 6.64056 43.4345C7.35696 41.9679 8.3236 40.4422 9.64104 39.3354C11.1389 38.0743 13.0501 37.4098 15.0073 37.4701ZM55.0146 2.49944C56.389 2.50797 57.4996 3.62507 57.4999 4.99944C57.4999 12.0251 55.5259 24.2647 42.8661 33.537C43.0794 34.4313 43.3233 35.609 43.4911 36.9111C43.6739 38.3294 43.7771 39.9627 43.6279 41.5693C43.4805 43.1543 43.0715 44.8988 42.08 46.3862L42.0776 46.391C40.3802 48.9277 37.1797 50.3993 34.9438 51.2104C33.7423 51.6462 32.6315 51.9548 31.8237 52.1552C31.4185 52.2557 31.0842 52.3298 30.8471 52.3798C30.7284 52.4048 30.6315 52.4252 30.5639 52.4384C30.5307 52.4449 30.503 52.4494 30.4833 52.4531C30.4738 52.4548 30.465 52.4568 30.4589 52.4579C30.4562 52.4584 30.4536 52.4576 30.4516 52.4579L30.4492 52.4604L30.4467 52.4604C29.7174 52.5928 28.9673 52.3934 28.3984 51.9184C27.8294 51.4434 27.4999 50.7406 27.4999 49.9994L27.4999 38.5346L21.4648 32.4994L9.99993 32.4994C9.25875 32.4994 8.55598 32.17 8.08099 31.601C7.60636 31.0321 7.40667 30.2817 7.53899 29.5527L9.99993 29.9994C7.72849 29.5871 7.55465 29.5556 7.54143 29.5527L7.54143 29.5405C7.54258 29.5342 7.54449 29.5258 7.54632 29.516C7.55005 29.4962 7.55683 29.4691 7.56341 29.4355C7.57658 29.368 7.59461 29.2731 7.61956 29.1547C7.66958 28.9175 7.74351 28.5815 7.84417 28.1757C8.04452 27.3681 8.3558 26.2591 8.79144 25.058C9.60258 22.8218 11.0735 19.6192 13.6108 17.9218L13.6132 17.9194C15.1006 16.9279 16.8451 16.5188 18.4301 16.3715C20.0368 16.2222 21.6699 16.3254 23.0883 16.5082C24.4023 16.6776 25.5895 16.9259 26.4867 17.1406C29.5141 12.8674 33.4749 9.3259 38.0785 6.79388C43.2652 3.94146 49.0954 2.46288 55.0146 2.49944ZM14.8534 42.4701C14.1269 42.4477 13.4172 42.6928 12.8613 43.1611L12.8588 43.1635C12.3015 43.6316 11.7053 44.4571 11.1327 45.6293C10.5742 46.7729 10.1151 48.088 9.74847 49.3696C9.6307 49.7813 9.52454 50.1843 9.42864 50.5707C9.81528 50.4748 10.2202 50.3712 10.6323 50.2533C11.9135 49.8868 13.2268 49.425 14.37 48.8666C15.542 48.2942 16.3677 47.7001 16.8359 47.143L16.8408 47.1357C17.8331 45.9613 17.7464 44.228 16.7748 43.2612C16.2519 42.773 15.5692 42.4923 14.8534 42.4701ZM38.3495 36.374C36.4537 37.4207 34.5012 38.3613 32.4999 39.1913L32.4999 46.7621C32.7399 46.6838 32.9866 46.5991 33.2372 46.5082C35.3947 45.7256 37.1946 44.698 37.9223 43.6103C38.2795 43.0728 38.5442 42.2434 38.6498 41.1078C38.7536 39.9911 38.6873 38.751 38.5326 37.5507C38.4802 37.1436 38.4158 36.7491 38.3495 36.374ZM52.3949 7.59954C48.2277 7.93816 44.1688 9.15201 40.4882 11.1762C36.0487 13.6179 32.3058 17.154 29.6191 21.4496L29.6044 21.4741C27.9913 23.9937 26.5976 26.646 25.4369 29.4013L30.603 34.5673C33.3916 33.4095 36.078 32.0178 38.6327 30.4047C49.1954 23.3102 51.8837 14.0349 52.3949 7.59954ZM18.894 21.3495C17.7559 21.4553 16.9242 21.7213 16.3867 22.0795C15.3 22.8085 14.273 24.6066 13.4911 26.7621C13.4002 27.0127 13.3156 27.2595 13.2372 27.4994L20.8154 27.4994C21.6562 25.4993 22.6085 23.5488 23.6694 21.6572C23.2813 21.588 22.8715 21.5212 22.4487 21.4667C21.2489 21.3121 20.0103 21.2459 18.894 21.3495Z" fill="url(#paint_linear_3)" fill-rule="nonzero" />
</svg>
