<svg viewBox="0 0 32 32" xmlns="http://www.w3.org/2000/svg" xmlns:xlink="http://www.w3.org/1999/xlink" width="32.000000" height="32.000000" fill="none">
	<rect id="operation_11826522 1" width="32.000000" height="32.000000" x="0.000000" y="0.000000" fill="rgb(255,255,255)" fill-opacity="0" />
	<g id="Group">
		<path id="Vector" d="M17.8206 13.5431C18.2394 13.6637 18.6387 13.8294 19.0187 14.0406L20.3719 13.01C20.5987 12.8369 20.915 12.8625 21.1112 13.0594L22.2769 14.2231C22.4881 14.4344 22.4969 14.7706 22.3031 14.9925L21.295 16.3169C21.5062 16.6975 21.6719 17.0962 21.7925 17.5156L23.4769 17.7437C23.7681 17.7831 23.9769 18.0381 23.9637 18.3262L23.9637 19.9481C23.9637 20.2331 23.7519 20.4681 23.4769 20.505L21.7925 20.7337C21.6719 21.1525 21.5062 21.5519 21.295 21.9325L22.325 23.2856C22.4981 23.5125 22.4725 23.8287 22.2756 24.025L21.1119 25.1906C20.9006 25.4019 20.5644 25.4106 20.3431 25.2169L19.0187 24.2087C18.6381 24.42 18.2387 24.5856 17.82 24.7062L17.5919 26.3906C17.5525 26.6819 17.2975 26.8906 17.0094 26.8775L15.3875 26.8775C15.1025 26.8775 14.8675 26.6656 14.8306 26.3906L14.6019 24.7062C14.1831 24.5856 13.7831 24.42 13.4031 24.2087L12.05 25.2394C11.8231 25.4125 11.5069 25.3869 11.3106 25.19L10.145 24.0262C9.93373 23.815 9.92498 23.4787 10.1187 23.2575L11.1269 21.9331C10.9156 21.5525 10.75 21.1537 10.6294 20.7344L8.94498 20.5062C8.65373 20.4669 8.44498 20.2119 8.45811 19.9237L8.45811 18.3019C8.45811 18.0169 8.66998 17.7819 8.94498 17.745L10.6294 17.5162C10.75 17.0975 10.9156 16.6981 11.1269 16.3175L10.0962 14.9644C9.92311 14.7375 9.94873 14.4212 10.1456 14.225L11.3094 13.0594C11.5206 12.8481 11.8569 12.8394 12.0787 13.0331L13.4031 14.0412C13.7837 13.83 14.1825 13.6644 14.6019 13.5437L14.83 11.8594C14.8681 11.5769 15.11 11.3712 15.3875 11.3719L17.035 11.37C17.335 11.37 17.5806 11.6044 17.5981 11.9006L17.8206 13.5437L17.8206 13.5431Z" fill="rgb(19,140,240)" fill-rule="evenodd" />
		<path id="Vector" d="M17.8206 13.5431C18.2394 13.6637 18.6388 13.8294 19.0188 14.0406L20.3894 12.9975L21.6288 14.2237C21.84 14.435 21.8488 14.7712 21.655 14.9925L20.6469 16.3169C20.8581 16.6975 21.0238 17.0962 21.1444 17.5156L22.8288 17.7437C23.12 17.7831 23.3288 18.0381 23.3156 18.3262L23.3156 19.9481C23.3156 20.2331 23.1038 20.4681 22.8288 20.505L21.1444 20.7337C21.0238 21.1525 20.8581 21.5519 20.6469 21.9325L21.6769 23.2856C21.85 23.5125 21.8244 23.8287 21.6275 24.025L20.3894 25.2531L19.0188 24.2087C18.5431 24.4706 18.3394 24.5319 17.82 24.7062C17.79 24.9294 17.6031 26.4119 17.5631 26.5081C17.4975 26.665 17.3956 26.7669 17.2406 26.8387L17.0094 26.8769L15.3344 26.8744L15.2213 26.8519C15.015 26.7875 14.8625 26.6037 14.8306 26.39L14.6019 24.7056C14.0994 24.5419 13.8569 24.4581 13.4031 24.2081L12.05 25.2387C11.8181 25.3962 11.52 25.3969 11.3106 25.1894L10.145 24.0256C9.93375 23.8144 9.925 23.4781 10.1188 23.2569L11.1269 21.9325L10.9 21.4781C10.9 21.4781 10.6294 20.8144 10.6294 20.7344C10.4881 20.715 8.93125 20.5044 8.93125 20.5044C8.64625 20.4587 8.46188 20.2231 8.45813 19.9237L8.45813 18.2881C8.46188 18.0075 8.67813 17.7819 8.945 17.7444L10.6294 17.5156C10.8031 16.9994 10.8838 16.7569 11.1269 16.3169L10.0963 14.9637C9.92313 14.7369 9.94876 14.4206 10.1456 14.2244L11.3094 13.0587C11.5388 12.8506 11.8344 12.8412 12.0788 13.0325L13.4031 14.0406C13.94 13.7706 14.0325 13.7194 14.6019 13.5431L14.83 11.8587C14.8575 11.665 14.985 11.495 15.1656 11.4169C15.1731 11.4137 15.1813 11.4106 15.1888 11.4075C15.2006 11.4031 15.2125 11.3987 15.2244 11.3956C15.2363 11.3919 15.2488 11.3887 15.2606 11.3856C15.265 11.3844 15.2688 11.3837 15.2731 11.3831L17.035 11.37C17.34 11.3706 17.5613 11.5919 17.5981 11.9006L17.8206 13.5437L17.8206 13.5431ZM8.60438 20.3269L8.5875 20.3075C8.59313 20.3137 8.59875 20.3206 8.60438 20.3269Z" fill="rgb(54,165,255)" fill-rule="evenodd" />
		<path id="Vector" d="M2.96188 5.92375C4.59767 5.92375 5.92375 4.59767 5.92375 2.96187C5.92375 1.32608 4.59767 0 2.96188 0C1.32608 0 0 1.32608 0 2.96187C0 4.59767 1.32608 5.92375 2.96188 5.92375Z" fill="rgb(255,214,117)" fill-rule="evenodd" transform="matrix(0.978,-0.209,0.209,0.978,12.7046,16.8396)" />
		<path id="Vector" d="M15.9462 22.0745C14.435 21.9401 13.25 20.6707 13.25 19.1245C13.25 17.5782 14.44 16.3038 15.9556 16.1738C17.4669 16.3082 18.6519 17.5776 18.6519 19.1238C18.6519 20.6701 17.4619 21.9445 15.9462 22.0745Z" fill="rgb(255,238,147)" fill-rule="evenodd" />
	</g>
	<g id="Group">
		<path id="Vector" d="M8.00563 15.0975C7.56001 16.6294 7.39688 16.7719 7.27376 18.3425C7.06563 20.9975 7.93438 23.5488 9.86376 25.4725C13.375 28.9732 19.0544 28.9788 22.5606 25.4725C24.185 23.8482 25.19 21.6032 25.19 19.1244C25.19 18.9175 25.3581 18.7494 25.565 18.7494L27.9006 18.7494C28.1075 18.7494 28.2756 18.9175 28.2756 19.1244C28.2756 25.7869 22.8744 31.1882 16.2119 31.1882C9.54938 31.1882 4.14813 25.7869 4.14813 19.1244C4.14813 17.7413 4.38438 16.4019 4.82188 15.15C4.83876 15.1325 4.85626 15.115 4.87313 15.0982L8.00563 15.0982L8.00563 15.0975Z" fill="rgb(125,163,29)" fill-rule="evenodd" />
		<path id="Vector" d="M15.9344 28.095C18.3237 28.1694 20.7356 27.2963 22.5594 25.4725C24.1837 23.8481 25.1887 21.6031 25.1887 19.1244C25.1887 18.9175 25.3568 18.7494 25.5637 18.7494L27.3369 18.7494C27.5437 18.7494 27.7119 18.9175 27.7119 19.1244C27.7119 25.6931 22.4618 31.035 15.9293 31.1844C9.39685 31.035 4.14685 25.6925 4.14685 19.1244C4.14685 17.7413 4.3831 16.4019 4.8206 15.15C4.83748 15.1325 4.85498 15.115 4.87185 15.0981L7.44185 15.0981C6.99623 16.63 6.8331 16.7725 6.70998 18.3431C6.50185 20.9981 7.3706 23.5494 9.29998 25.4731C11.1281 27.2956 13.5431 28.17 15.9337 28.0956L15.9344 28.095Z" fill="rgb(171,214,65)" fill-rule="evenodd" />
		<g id="Group">
			<path id="Vector" d="M10.8187 8.21368L23.5712 8.21368L23.5712 7.24243C23.5712 7.03556 23.7394 6.86743 23.9462 6.86743C24.0237 6.86743 24.0962 6.89118 24.1556 6.93118L28.0931 9.30368C28.27 9.41056 28.3275 9.64056 28.2206 9.81806C28.1868 9.87431 28.1406 9.91806 28.0881 9.94868L24.14 12.3281C23.9631 12.4349 23.7325 12.3781 23.6256 12.2006C23.5894 12.1399 23.5718 12.0731 23.5718 12.0074L23.5718 11.0362L10.8187 11.0362C10.6119 11.0362 10.4437 10.8681 10.4437 10.6612L10.4437 8.58931C10.4437 8.38243 10.6119 8.21431 10.8187 8.21431L10.8187 8.21368Z" fill="rgb(125,163,29)" fill-rule="evenodd" />
			<path id="Vector" d="M28.225 9.81056L28.2206 9.81806C28.1869 9.87431 28.1406 9.91806 28.0881 9.94868L24.14 12.3281C23.9631 12.4349 23.7325 12.3781 23.6256 12.2006C23.5944 12.1487 23.5775 12.0924 23.5731 12.0362L23.5731 11.4106L23.5719 11.4106L23.5719 11.0356L10.8188 11.0356C10.6231 11.0356 10.4625 10.8856 10.445 10.6943L10.445 8.96368C10.445 8.75681 10.6131 8.58868 10.82 8.58868L23.5725 8.58868L23.5725 7.61743C23.5725 7.41056 23.7406 7.24243 23.9475 7.24243C24.025 7.24243 24.0975 7.26618 24.1569 7.30618L28.0944 9.67868C28.15 9.71243 28.1938 9.75806 28.2244 9.81056L28.225 9.81056Z" fill="rgb(171,214,65)" fill-rule="evenodd" />
		</g>
		<path id="Vector" d="M6.45312 3.44879L19.2056 3.44879L19.2056 2.47754C19.2056 2.27066 19.3738 2.10254 19.5806 2.10254C19.6581 2.10254 19.7306 2.12629 19.79 2.16629L23.7275 4.53879C23.9044 4.64566 23.9619 4.87566 23.855 5.05316C23.8212 5.10941 23.775 5.15316 23.7225 5.18379L19.7744 7.56316C19.5975 7.67004 19.3669 7.61316 19.26 7.43566C19.2238 7.37504 19.2062 7.30816 19.2062 7.24254L19.2062 6.27129L6.45312 6.27129C6.24625 6.27129 6.07812 6.10316 6.07812 5.89629L6.07812 3.82379C6.07812 3.61691 6.24625 3.44879 6.45312 3.44879Z" fill="rgb(125,163,29)" fill-rule="evenodd" />
		<path id="Vector" d="M19.2056 3.4488L19.2056 2.94067C19.2056 2.7338 19.3738 2.56567 19.5806 2.56567C19.6581 2.56567 19.7306 2.58942 19.79 2.62942L23.7275 5.00192C23.7675 5.0263 23.8013 5.0563 23.8288 5.09067C23.7988 5.1288 23.7625 5.15942 23.7225 5.18317L19.7744 7.56255C19.5975 7.66942 19.3669 7.61255 19.26 7.43505C19.2238 7.37442 19.2063 7.30755 19.2063 7.24192L19.2063 6.27067L6.45312 6.27067C6.24625 6.27067 6.07812 6.10255 6.07812 5.89567L6.07812 4.28692C6.07812 4.08005 6.24625 3.91192 6.45312 3.91192L19.2056 3.91192L19.2056 3.4488Z" fill="rgb(171,214,65)" fill-rule="evenodd" />
		<path id="Vector" d="M29.7388 15.4425L29.0681 16.6037C29.0644 16.6106 29.0606 16.6169 29.0562 16.6231L28.3975 17.7637C28.3287 17.8837 28.2031 17.9512 28.0737 17.9512L28.0737 17.9525L25.3919 17.9525C25.2406 17.9525 25.11 17.8625 25.0506 17.7331L24.3981 16.6031L23.7275 15.4425C23.6538 15.315 23.6637 15.1625 23.74 15.0475L24.3981 13.9075L25.0688 12.7462C25.1375 12.6262 25.2631 12.5587 25.3925 12.5587L25.3925 12.5575L28.0744 12.5575C28.2256 12.5575 28.3563 12.6475 28.4156 12.7769L29.0688 13.9081L29.7394 15.0694C29.8081 15.1894 29.8031 15.3312 29.7394 15.4425L29.7388 15.4425Z" fill="rgb(53,62,153)" fill-rule="evenodd" />
		<path id="Vector" d="M27.7556 17.9525L25.3925 17.9525C25.2412 17.9525 25.1106 17.8625 25.0512 17.7331L24.3987 16.6031L23.7281 15.4425C23.6544 15.315 23.6644 15.1625 23.7406 15.0475L24.3987 13.9075L25.0694 12.7462C25.1381 12.6262 25.2637 12.5587 25.3931 12.5587L25.3931 12.5575L27.7562 12.5575C27.9075 12.5575 28.0381 12.6475 28.0975 12.7769L28.7506 13.9081L29.4212 15.0694C29.49 15.1894 29.485 15.3312 29.4212 15.4425C29.3575 15.5537 28.7506 16.6044 28.7506 16.6044C28.7469 16.6112 28.7431 16.6175 28.7387 16.6237L28.08 17.7644C28.0112 17.8844 27.8856 17.9519 27.7562 17.9519L27.7562 17.9531L27.7556 17.9525Z" fill="rgb(93,100,180)" fill-rule="evenodd" />
		<path id="Vector" d="M26.7331 13.7119C27.1594 13.7119 27.545 13.8844 27.8244 14.1638C28.1038 14.4432 28.2763 14.8288 28.2763 15.255C28.2763 15.6813 28.1038 16.0669 27.8244 16.3463C27.545 16.6257 27.1594 16.7982 26.7331 16.7982C26.3069 16.7982 25.9213 16.6257 25.6419 16.3463C25.3625 16.0669 25.19 15.6813 25.19 15.255C25.19 14.8288 25.3625 14.4432 25.6419 14.1638C25.9213 13.8844 26.3069 13.7119 26.7331 13.7119Z" fill="rgb(237,219,165)" fill-rule="evenodd" />
		<path id="Vector" d="M26.6531 16.7962C26.2588 16.7762 25.9038 16.6081 25.6419 16.3462C25.3625 16.0669 25.19 15.6812 25.19 15.255C25.19 14.8287 25.3625 14.4431 25.6419 14.1637C25.9038 13.9019 26.2588 13.7337 26.6531 13.7137C27.0475 13.7337 27.4025 13.9019 27.6644 14.1637C27.9438 14.4431 28.1163 14.8287 28.1163 15.255C28.1163 15.6812 27.9438 16.0669 27.6644 16.3462C27.4025 16.6081 27.0475 16.7762 26.6531 16.7962Z" fill="rgb(255,240,196)" fill-rule="evenodd" />
	</g>
	<path id="Vector" d="M9.17503 18.1694L7.91316 18.1694C7.29874 18.1694 6.80066 18.6675 6.80066 19.2819L6.80066 19.9188C6.80066 20.5332 7.29874 21.0313 7.91316 21.0313L9.17503 21.0313C9.78945 21.0313 10.2875 20.5332 10.2875 19.9188L10.2875 19.2819C10.2875 18.6675 9.78945 18.1694 9.17503 18.1694Z" fill="rgb(39,39,79)" fill-rule="evenodd" />
	<path id="Vector" d="M8.81753 18.1694L7.91316 18.1694C7.29874 18.1694 6.80066 18.6675 6.80066 19.2819L6.80066 19.9188C6.80066 20.5332 7.29874 21.0313 7.91316 21.0313L8.81753 21.0313C9.43195 21.0313 9.93003 20.5332 9.93003 19.9188L9.93003 19.2819C9.93003 18.6675 9.43195 18.1694 8.81753 18.1694Z" fill="rgb(84,84,117)" fill-rule="evenodd" />
	<path id="Vector" d="M8.54254 0.8125C12.0394 0.8125 14.8738 3.46375 14.8738 6.73438C14.8738 10.005 12.1869 10.2338 12.1869 17.0063C12.1869 17.4163 11.8282 17.7519 11.39 17.7519L5.69566 17.7519C5.25754 17.7519 4.89879 17.4163 4.89879 17.0063C4.89879 10.2331 2.21191 10.0312 2.21191 6.73438C2.21191 3.4375 5.04629 0.8125 8.54254 0.8125Z" fill="rgb(249,191,44)" fill-rule="evenodd" />
	<path id="Vector" d="M10.6775 17.7519L5.69566 17.7519C5.25754 17.7519 4.89879 17.4163 4.89879 17.0063C4.89879 10.2332 2.21191 10.0313 2.21191 6.7344C2.21191 3.43752 4.85566 0.995024 8.18629 0.821899C11.5169 0.995024 14.1613 3.57565 14.1613 6.73377C14.1613 9.8919 11.4744 10.2331 11.4744 17.0056C11.4744 17.4156 11.1157 17.7513 10.6775 17.7513L10.6775 17.7519Z" fill="rgb(251,215,52)" fill-rule="evenodd" />
	<path id="Vector" d="M10.4581 16.6212L6.63002 16.6212C6.0156 16.6212 5.51752 17.1193 5.51752 17.7337L5.51752 18.3706C5.51752 18.985 6.0156 19.4831 6.63002 19.4831L10.4581 19.4831C11.0726 19.4831 11.5706 18.985 11.5706 18.3706L11.5706 17.7337C11.5706 17.1193 11.0726 16.6212 10.4581 16.6212Z" fill="rgb(84,84,117)" fill-rule="evenodd" />
	<path id="Vector" d="M9.60439 16.6212L6.63002 16.6212C6.0156 16.6212 5.51752 17.1193 5.51752 17.7337L5.51752 18.3706C5.51752 18.985 6.0156 19.4831 6.63002 19.4831L9.60439 19.4831C10.2188 19.4831 10.7169 18.985 10.7169 18.3706L10.7169 17.7337C10.7169 17.1193 10.2188 16.6212 9.60439 16.6212Z" fill="rgb(145,145,173)" fill-rule="evenodd" />
	<path id="Vector" d="M4.82562 15.1943L12.26 15.1943C12.2131 15.7412 12.1869 16.3418 12.1869 17.0062C12.1869 17.4162 11.8281 17.7518 11.39 17.7518L5.69562 17.7518C5.2575 17.7518 4.89875 17.4162 4.89875 17.0062C4.89875 16.3418 4.8725 15.7412 4.82625 15.1943L4.82562 15.1943Z" fill="rgb(145,145,173)" fill-rule="evenodd" />
	<path id="Vector" d="M4.82562 15.1943L11.5475 15.1943C11.5006 15.7412 11.475 16.3418 11.475 17.0062C11.475 17.4162 11.1162 17.7518 10.6781 17.7518L5.69562 17.7518C5.2575 17.7518 4.89875 17.4162 4.89875 17.0062C4.89875 16.3418 4.8725 15.7412 4.82625 15.1943L4.82562 15.1943Z" fill="rgb(219,219,219)" fill-rule="evenodd" />
	<path id="Vector" d="M11.4338 8.16007C11.4863 7.96007 11.6913 7.84069 11.8906 7.89319C12.0906 7.94569 12.21 8.15069 12.1575 8.35007C11.7281 9.97445 10.2469 11.1294 8.5425 11.1294C6.47688 11.1294 4.80188 9.45444 4.80188 7.38882C4.80188 5.32319 6.47688 3.64819 8.5425 3.64819C9.96563 3.64819 11.2525 4.45632 11.8838 5.70757C11.9769 5.89194 11.9025 6.11694 11.7181 6.21007C11.5338 6.30319 11.3088 6.22882 11.2156 6.04444C10.2988 4.22569 7.86938 3.83257 6.4275 5.27382C5.25938 6.44194 5.25938 8.33507 6.4275 9.50319C8.06063 11.1363 10.8456 10.3713 11.4331 8.15944L11.4338 8.16007Z" fill="rgb(219,219,219)" fill-rule="evenodd" />
	<path id="Vector" d="M11.4338 8.15997C11.4613 8.05434 11.5319 7.97122 11.6213 7.92434C11.8006 7.98997 11.9031 8.18246 11.8538 8.37059C11.4588 9.86621 10.1713 10.9637 8.63877 11.1281C8.60689 11.1287 8.57439 11.1293 8.54189 11.1293C6.47627 11.1293 4.80127 9.45434 4.80127 7.38872C4.80127 5.45809 6.26439 3.86872 8.14252 3.66934C8.17439 3.66872 8.20627 3.66809 8.23814 3.66809C9.66127 3.66809 10.9481 4.47622 11.5794 5.72747C11.6713 5.90997 11.6 6.13184 11.4194 6.22684C11.3338 6.19497 11.2588 6.13247 11.2144 6.04434C10.6169 4.85872 9.37689 4.27934 8.18627 4.41809C7.44752 4.42934 6.70502 4.71184 6.12314 5.29372C4.95502 6.46184 4.95502 8.35497 6.12314 9.52309C6.81689 10.2168 7.71877 10.4775 8.57127 10.3787C9.83814 10.36 11.065 9.54247 11.4325 8.15934L11.4338 8.15997Z" fill="rgb(255,255,255)" fill-rule="evenodd" />
	<path id="Vector" d="M2.06625 4.1325C3.20741 4.1325 4.1325 3.20741 4.1325 2.06625C4.1325 0.925092 3.20741 0 2.06625 0C0.925091 0 0 0.925092 0 2.06625C0 3.20741 0.925091 4.1325 2.06625 4.1325Z" fill="rgb(219,219,219)" fill-rule="evenodd" transform="matrix(0.958,-0.287,0.287,0.958,5.96887,6.00708)" />
	<path id="Vector" d="M8.54251 5.32312L8.56313 5.32312C9.57126 5.46 10.3488 6.32437 10.3488 7.37C10.3488 8.51125 9.42376 9.43624 8.28251 9.43624C8.27563 9.43624 8.26876 9.43624 8.26188 9.43624C7.25376 9.29937 6.47626 8.435 6.47626 7.38937C6.47626 6.24812 7.40126 5.32312 8.54251 5.32312Z" fill="rgb(255,255,255)" fill-rule="evenodd" />
</svg>
